<?xml version="1.0"?>
<svg xmlns:xlink="http://www.w3.org/1999/xlink" xmlns="http://www.w3.org/2000/svg" class="" height="512px" width="512px" xml:space="preserve" style="enable-background:new 0 0 395 395;" viewBox="0 0 395 395" y="0px" x="0px" id="Capa_1" version="1.1"><g><g>
	<path data-old_color="#49D41B" class="active-path" data-original="#000000" d="M313.002,0H82C36.785,0,0,36.784,0,81.998v230.993C0,358.211,36.785,395,82,395h231.002   C358.216,395,395,358.211,395,312.991V81.998C395,36.784,358.216,0,313.002,0z M380,312.991C380,349.94,349.944,380,313.002,380H82   c-36.944,0-67-30.06-67-67.009V81.998C15,45.055,45.056,15,82,15h231.002C349.944,15,380,45.055,380,81.998V312.991z" fill="#4AD41C"/>
	<g>
		<path data-old_color="#49D41B" class="active-path" data-original="#000000" d="M154.908,271.527c-8.127-39.333,15.168-67.109,42.381-74.219c4.488-1.173,8.771-1.742,13.096-1.742    c1.77,0,3.443,0.108,5.045,0.277V94.665l9.943-12.611c1.377-1.747,1.08-4.272-0.668-5.65l-18.947-14.937    c-0.836-0.659-1.895-0.957-2.959-0.836c-1.063,0.125-2.025,0.668-2.686,1.504l-5.168,6.552h-49.158l-57.1,87.093v159.924    c0,10.328,8.375,18.694,18.695,18.694h89.352c0.482,0,0.957-0.036,1.43-0.072C176.475,322.728,160.131,296.81,154.908,271.527z     M152.059,152.09h-40.965l40.965-57.568V152.09z" fill="#4AD41C"/>
		<path data-old_color="#49D41B" class="active-path" data-original="#000000" d="M275.139,213.944c-15.957-4.168-22.996,4.009-36.752,4.009c-13.756,0-20.791-8.177-36.752-4.009    c-17.553,4.583-36.293,23.095-29.891,54.104c6.18,29.912,31.256,59.902,56.012,54.789c3.785-0.784,7.34-2.115,10.631-3.906    c3.293,1.791,6.85,3.122,10.631,3.906c24.756,5.113,49.832-24.877,56.012-54.789C311.434,237.039,292.691,218.527,275.139,213.944    z" fill="#4AD41C"/>
		<path data-old_color="#49D41B" class="active-path" data-original="#000000" d="M261.703,204.199c11.625-7.676,15.147-22.832,15.147-22.832s-15.322-2.715-26.945,4.959    c-11.625,7.676-15.146,22.836-15.146,22.836S250.08,211.877,261.703,204.199z" fill="#4AD41C"/>
	</g>
</g></g> </svg>
